<svg id="Layer_1" height="512" viewBox="0 0 512 512" width="512" xmlns="http://www.w3.org/2000/svg" data-name="Layer 1"><path d="m501 256c0 1.46-.01 2.92-.04 4.37a55.1 55.1 0 1 1 -16.22-92.31 244.206 244.206 0 0 1 16.26 87.94z" fill="#7f8a98"/><path d="m464.25 274.37a54.909 54.909 0 0 0 36.71-14c-2.33 133.29-111.11 240.63-244.96 240.63a244.992 244.992 0 0 1 -218.95-134.96l.17-.08a55.124 55.124 0 1 0 5.64-109.96 54.884 54.884 0 0 0 -31.65 9.98q-.2-4.965-.2-9.98c0-127.39 97.23-232.07 221.52-243.89l.05.53a52.675 52.675 0 1 0 104.25 12.01 245.7 245.7 0 0 1 147.91 143.41 55.128 55.128 0 1 0 -20.49 106.31z" fill="#dde2f2"/><path d="m336.83 24.65a52.67 52.67 0 1 1 -104.25-12.01l-.05-.53q11.58-1.095 23.47-1.11a244.685 244.685 0 0 1 80.83 13.65z" fill="#7f8a98"/><path d="m42.86 256a55.125 55.125 0 1 1 -5.64 109.96l-.17.08a243.759 243.759 0 0 1 -25.84-100.06 54.884 54.884 0 0 1 31.65-9.98z" fill="#c3cbdd"/><circle cx="363.8" cy="411.57" fill="#c3cbdd" r="24.5"/><path d="m274.38 215.58a35.52 35.52 0 1 1 -35.53 35.52 35.516 35.516 0 0 1 35.53-35.52z" fill="#848b9b"/><circle cx="154.33" cy="139.63" fill="#c3cbdd" r="24.5"/><circle cx="181.28" cy="403" fill="#6d7486" r="12.25"/><path d="m41.01 256c0-116.71 81.616-214.344 190.877-238.986.174-1.475.4-2.937.693-4.374l-.05-.53c-124.29 11.82-221.52 116.5-221.52 243.89q0 5.01.2 9.98a54.857 54.857 0 0 1 29.8-9.944z" fill="#848b9b"/><path d="m67.05 366.04-2.14-4.392-22.05 4.6a55.463 55.463 0 0 1 -5.64-.29l-.17.08a244.992 244.992 0 0 0 218.95 134.962c5.013 0 9.986-.169 14.924-.466a245.054 245.054 0 0 1 -203.874-134.494z" fill="#6d7486"/><path d="m41.21 265.98-.2-9.95a54.862 54.862 0 0 0 -29.8 9.95 243.759 243.759 0 0 0 25.84 100.06l.17-.08a55.463 55.463 0 0 0 5.64.29 54.9 54.9 0 0 0 22.05-4.6 243.784 243.784 0 0 1 -23.7-95.67z" fill="#5f6875"/><g fill="#284268"><path d="m274.379 209.576a41.525 41.525 0 1 0 41.521 41.524 41.572 41.572 0 0 0 -41.521-41.524zm0 71.049a29.525 29.525 0 1 1 29.521-29.525 29.558 29.558 0 0 1 -29.521 29.525z"/><path d="m363.8 381.073a30.5 30.5 0 1 0 30.5 30.5 30.534 30.534 0 0 0 -30.5-30.5zm0 49a18.5 18.5 0 1 1 18.5-18.5 18.521 18.521 0 0 1 -18.5 18.499z"/><path d="m181.281 384.748a18.25 18.25 0 1 0 18.25 18.252 18.27 18.27 0 0 0 -18.25-18.252zm0 24.5a6.25 6.25 0 1 1 6.25-6.25 6.257 6.257 0 0 1 -6.25 6.249z"/><path d="m184.831 139.627a30.5 30.5 0 1 0 -30.5 30.5 30.535 30.535 0 0 0 30.5-30.5zm-30.5 18.5a18.5 18.5 0 1 1 18.5-18.5 18.521 18.521 0 0 1 -18.499 18.5z"/><path d="m256.005 5a251 251 0 0 0 -177.481 428.48 250.995 250.995 0 1 0 354.961-354.96 249.348 249.348 0 0 0 -177.48-73.52zm-18.163 12.683q9.019-.673 18.163-.679a239.536 239.536 0 0 1 74.483 11.785 46.655 46.655 0 1 1 -92.646-11.106zm-197.042 342.517a237.407 237.407 0 0 1 -23.427-91.072 49.126 49.126 0 1 1 25.486 91.124c-.685-.004-1.373-.028-2.059-.052zm454.2-104.2c0 .524-.016 1.046-.019 1.57a49.107 49.107 0 1 1 -14.829-84.811 239.039 239.039 0 0 1 14.848 83.241zm-30.749-97.873a61.124 61.124 0 1 0 30.186 114.264 238.995 238.995 0 0 1 -407.428 152.609 240.1 240.1 0 0 1 -40.017-52.9 61.117 61.117 0 1 0 -29.979-116.376 239.055 239.055 0 0 1 208.67-236.819c-.106 1.445-.178 2.893-.178 4.341a58.635 58.635 0 0 0 58.674 58.554 58.374 58.374 0 0 0 57.853-48.909 240.688 240.688 0 0 1 132.542 126.119 61.552 61.552 0 0 0 -10.323-.883z"/></g></svg>