<?xml version="1.0" encoding="iso-8859-1"?>
<!-- Generator: Adobe Illustrator 19.0.0, SVG Export Plug-In . SVG Version: 6.00 Build 0)  -->
<svg version="1.1" id="Capa_1" xmlns="http://www.w3.org/2000/svg" xmlns:xlink="http://www.w3.org/1999/xlink" x="0px" y="0px"
	 viewBox="0 0 512 512" style="enable-background:new 0 0 512 512;" xml:space="preserve">
<g>
	<circle style="fill:#FFD347;" cx="255.997" cy="255.997" r="144.824"/>
	<path style="fill:#FFD347;" d="M256,56.849c-4.273,0-7.737-3.463-7.737-7.737V7.737C248.263,3.463,251.727,0,256,0
		s7.737,3.463,7.737,7.737v41.376C263.737,53.386,260.273,56.849,256,56.849z"/>
	<path style="fill:#FFD347;" d="M152.563,84.568c-2.674,0-5.274-1.387-6.707-3.869l-20.687-35.832
		c-2.136-3.7-0.869-8.432,2.832-10.569c3.701-2.134,8.432-0.87,10.569,2.832l20.687,35.832c2.136,3.7,0.869,8.432-2.832,10.569
		C155.206,84.234,153.876,84.568,152.563,84.568z"/>
	<path style="fill:#FFD347;" d="M76.823,160.294c-1.312,0-2.643-0.334-3.861-1.038L37.13,138.569
		c-3.7-2.136-4.968-6.868-2.832-10.569c2.136-3.701,6.868-4.967,10.569-2.832l35.832,20.687c3.7,2.136,4.968,6.868,2.832,10.569
		C82.097,158.907,79.497,160.294,76.823,160.294z"/>
	<path style="fill:#FFD347;" d="M49.112,263.737H7.737C3.464,263.737,0,260.274,0,256s3.464-7.737,7.737-7.737h41.376
		c4.273,0,7.737,3.463,7.737,7.737S53.385,263.737,49.112,263.737z"/>
	<path style="fill:#FFD347;" d="M41.005,387.869c-2.674,0-5.274-1.387-6.707-3.869c-2.136-3.7-0.869-8.432,2.832-10.569
		l35.832-20.687c3.7-2.134,8.432-0.87,10.569,2.832c2.136,3.7,0.869,8.432-2.832,10.569l-35.832,20.687
		C43.648,387.535,42.317,387.869,41.005,387.869z"/>
	<path style="fill:#FFD347;" d="M131.862,478.74c-1.312,0-2.643-0.334-3.861-1.038c-3.7-2.136-4.968-6.868-2.832-10.569
		l20.687-35.832c2.136-3.701,6.868-4.967,10.569-2.832c3.7,2.136,4.968,6.868,2.832,10.569l-20.687,35.832
		C137.136,477.352,134.536,478.74,131.862,478.74z"/>
	<path style="fill:#FFD347;" d="M256,512c-4.273,0-7.737-3.463-7.737-7.737v-41.376c0-4.274,3.464-7.737,7.737-7.737
		s7.737,3.463,7.737,7.737v41.376C263.737,508.537,260.273,512,256,512z"/>
	<path style="fill:#FFD347;" d="M380.138,478.74c-2.674,0-5.274-1.387-6.707-3.869l-20.687-35.832
		c-2.136-3.7-0.869-8.432,2.832-10.569c3.7-2.134,8.432-0.87,10.569,2.832l20.687,35.832c2.136,3.7,0.869,8.432-2.832,10.569
		C382.781,478.406,381.451,478.74,380.138,478.74z"/>
	<path style="fill:#FFD347;" d="M470.995,387.869c-1.312,0-2.643-0.334-3.861-1.038l-35.832-20.687
		c-3.7-2.136-4.968-6.868-2.832-10.569c2.136-3.701,6.868-4.967,10.569-2.832l35.832,20.687c3.7,2.136,4.968,6.868,2.832,10.569
		C476.269,386.481,473.669,387.869,470.995,387.869z"/>
	<path style="fill:#FFD347;" d="M504.263,263.737h-41.376c-4.273,0-7.737-3.463-7.737-7.737s3.464-7.737,7.737-7.737h41.376
		c4.273,0,7.737,3.463,7.737,7.737S508.536,263.737,504.263,263.737z"/>
	<path style="fill:#FFD347;" d="M435.177,160.294c-2.674,0-5.274-1.387-6.707-3.869c-2.136-3.7-0.869-8.432,2.832-10.569
		l35.832-20.687c3.7-2.134,8.432-0.87,10.569,2.832c2.136,3.7,0.869,8.432-2.832,10.569l-35.832,20.687
		C437.82,159.96,436.489,160.294,435.177,160.294z"/>
	<path style="fill:#FFD347;" d="M359.437,84.568c-1.312,0-2.643-0.334-3.861-1.038c-3.7-2.136-4.968-6.868-2.832-10.569
		l20.687-35.832c2.136-3.701,6.868-4.967,10.569-2.832c3.7,2.136,4.968,6.868,2.832,10.569l-20.687,35.832
		C364.711,83.181,362.11,84.568,359.437,84.568z"/>
</g>
<path style="fill:#FFBE31;" d="M256,111.18c-5.242,0-10.418,0.286-15.516,0.828c72.685,7.743,129.303,69.252,129.303,143.991
	s-56.619,136.249-129.303,143.992c5.098,0.544,10.273,0.828,15.516,0.828c79.982,0,144.82-64.838,144.82-144.82
	S335.983,111.18,256,111.18z"/>
<g>
</g>
<g>
</g>
<g>
</g>
<g>
</g>
<g>
</g>
<g>
</g>
<g>
</g>
<g>
</g>
<g>
</g>
<g>
</g>
<g>
</g>
<g>
</g>
<g>
</g>
<g>
</g>
<g>
</g>
</svg>
