<?xml version="1.0" standalone="no"?>
<!DOCTYPE svg PUBLIC "-//W3C//DTD SVG 20010904//EN"
 "http://www.w3.org/TR/2001/REC-SVG-20010904/DTD/svg10.dtd">
<svg version="1.0" xmlns="http://www.w3.org/2000/svg"
 width="122.000000pt" height="122.000000pt" viewBox="0 0 122.000000 122.000000"
 preserveAspectRatio="xMidYMid meet">
<metadata>
Created by potrace 1.14, written by Peter Selinger 2001-2017
</metadata>
<g transform="translate(0.000000,122.000000) scale(0.100000,-0.100000)"
fill="#1da1f2" stroke="none">
<path d="M767 1154 c-59 -21 -117 -73 -142 -127 -19 -41 -23 -67 -24 -170 -1
-67 -4 -123 -6 -126 -14 -14 -146 4 -220 29 -94 32 -177 94 -263 195 -27 31
-36 26 -50 -25 -22 -84 7 -190 69 -248 25 -24 28 -30 14 -27 -11 2 -20 4 -20
5 0 1 -7 3 -16 5 -9 1 -26 6 -38 10 -19 6 -21 3 -17 -29 11 -83 68 -156 156
-198 l35 -17 -52 0 c-45 -1 -51 -3 -46 -20 8 -29 71 -99 106 -117 17 -9 49
-22 71 -28 l41 -12 -55 -32 c-73 -43 -146 -63 -230 -65 -39 -1 -70 -3 -70 -5
0 -8 154 -73 207 -86 165 -43 397 -14 568 70 98 49 111 58 180 128 78 80 119
149 138 234 18 77 13 189 -11 253 -20 52 9 132 89 241 34 48 37 63 9 48 -11
-6 -20 -9 -20 -6 0 3 -16 -2 -35 -10 -50 -21 -51 -18 -11 29 54 61 56 65 56
81 0 13 -5 12 -32 -3 -18 -11 -52 -25 -76 -32 -38 -11 -44 -10 -65 8 -59 54
-163 75 -240 47z"/>
</g>
</svg>
