<?xml version="1.0" standalone="no"?>
<!DOCTYPE svg PUBLIC "-//W3C//DTD SVG 20010904//EN"
 "http://www.w3.org/TR/2001/REC-SVG-20010904/DTD/svg10.dtd">
<svg version="1.0" xmlns="http://www.w3.org/2000/svg"
 width="512.000000pt" height="512.000000pt" viewBox="0 0 512.000000 512.000000"
 preserveAspectRatio="xMidYMid meet">
<metadata>
Created by potrace 1.14, written by Peter Selinger 2001-2017
</metadata>
<g transform="translate(0.000000,512.000000) scale(0.100000,-0.100000)"
fill="#000000" stroke="none">
<path d="M3463 4504 c-237 -40 -454 -168 -609 -359 -78 -97 -121 -177 -169
-316 -41 -120 -46 -186 -48 -635 l-2 -429 -95 1 c-463 2 -907 121 -1225 326
-166 107 -384 301 -525 467 -25 29 -58 67 -73 84 -16 18 -49 58 -74 90 -25 31
-50 57 -54 57 -11 0 -64 -113 -88 -190 -123 -393 7 -824 324 -1075 28 -21 55
-43 60 -48 12 -10 -72 -1 -169 19 -74 15 -198 58 -231 81 -43 29 -45 22 -30
-119 38 -374 329 -717 703 -828 41 -12 72 -23 70 -25 -2 -3 -42 -10 -89 -18
-87 -14 -238 -15 -304 -3 -37 7 -37 7 -31 -21 12 -47 64 -149 116 -225 151
-224 378 -370 659 -424 13 -3 48 -6 77 -7 31 -1 53 -6 51 -12 -2 -5 -48 -40
-103 -78 -108 -74 -316 -180 -434 -222 -91 -32 -281 -82 -347 -91 -26 -3 -57
-8 -68 -10 -83 -16 -341 -22 -443 -11 -28 4 -52 5 -52 3 0 -17 328 -185 475
-244 161 -64 410 -135 545 -156 19 -3 53 -8 75 -11 22 -4 51 -8 64 -10 59 -10
227 -19 356 -19 143 0 394 11 417 19 7 2 37 6 67 10 403 43 824 170 1188 356
365 186 661 430 887 727 109 144 223 360 280 535 35 108 72 276 82 372 8 79 8
283 -1 365 -13 137 -63 358 -110 490 -16 46 -19 166 -4 205 4 11 17 51 29 90
40 124 76 188 290 509 115 174 210 318 210 321 0 3 -8 1 -17 -4 -70 -37 -286
-100 -438 -127 -95 -17 -106 -17 -80 -2 38 22 150 116 192 161 65 70 146 194
182 280 18 44 31 80 29 82 -2 2 -60 -25 -129 -59 -129 -64 -325 -135 -435
-157 l-61 -12 -43 41 c-208 207 -543 308 -847 256z"/>
</g>
</svg>
